<svg width="50" height="52" viewBox="0 0 50 52" fill="none" xmlns="http://www.w3.org/2000/svg">
<path d="M30.5025 8.5382e-06H19.4938C18.4505 0.375305 17.8763 1.08837 17.7349 2.2055C17.5147 3.93938 17.227 5.66574 16.9843 7.39711C16.9734 7.53712 16.9234 7.67124 16.84 7.78424C16.7566 7.89725 16.6432 7.9846 16.5127 8.03637C15.6669 8.43281 14.858 8.90379 14.0958 9.44373C13.773 9.67516 13.4815 9.68017 13.12 9.5313C11.5525 8.88204 9.97125 8.24778 8.3925 7.62229C6.95136 7.04808 5.85675 7.42588 5.08489 8.76069C3.55618 11.4036 2.02747 14.0461 0.498761 16.6882C-0.344406 18.1481 -0.126734 19.269 1.21433 20.3161C2.51536 21.3319 3.80888 22.3577 5.12367 23.356C5.28233 23.461 5.40541 23.6117 5.47666 23.7882C5.54791 23.9646 5.56397 24.1585 5.52273 24.3443C5.40514 25.1708 5.40514 26.0097 5.52273 26.8362C5.58654 27.2916 5.48896 27.6131 5.09615 27.9083C3.7776 28.9016 2.48658 29.9312 1.18806 30.9495C-0.110471 31.9678 -0.340653 33.0949 0.491255 34.5361L5.07238 42.4611C5.84049 43.7897 6.96137 44.185 8.38 43.6208C9.97501 42.9853 11.57 42.351 13.1575 41.698C13.3053 41.6235 13.4712 41.5925 13.6359 41.6084C13.8006 41.6243 13.9575 41.6866 14.0883 41.7881C14.8662 42.3351 15.6894 42.8147 16.549 43.2217C16.6708 43.2727 16.7762 43.3566 16.8533 43.4639C16.9303 43.5713 16.9761 43.6979 16.9856 43.8297C17.2357 45.6269 17.4955 47.4234 17.7649 49.2189C17.9513 50.4824 18.8558 51.2743 20.1318 51.2818C23.3668 51.2818 26.6019 51.2818 29.837 51.2818C31.1493 51.2818 32.0387 50.5087 32.2364 49.2027C32.5066 47.4246 32.7651 45.6449 33.012 43.8635C33.0207 43.7238 33.0683 43.5893 33.1495 43.4752C33.2306 43.3611 33.342 43.272 33.4711 43.218C34.3188 42.825 35.1286 42.3552 35.8905 41.8143C36.2308 41.5716 36.5335 41.5741 36.9113 41.7293C38.4513 42.366 40.0013 42.9803 41.5512 43.5945C43.1012 44.2087 44.1258 43.8447 44.9589 42.4111C46.481 39.7865 47.9997 37.1594 49.515 34.5298C50.3269 33.1225 50.1105 31.9778 48.8345 30.9745C47.511 29.9337 46.1887 28.8916 44.8513 27.8683C44.5373 27.6269 44.4097 27.3679 44.466 26.9738C44.5924 26.0809 44.5924 25.1746 44.466 24.2817C44.411 23.8877 44.5323 23.6287 44.8476 23.386C46.2228 22.3293 47.5902 21.2618 48.9496 20.1835C50.0755 19.2915 50.3082 18.1043 49.5901 16.8558C48.0372 14.152 46.4768 11.4524 44.9089 8.75694C44.1283 7.41588 43.0387 7.05434 41.5963 7.63105C40.0025 8.2678 38.4075 8.9033 36.8175 9.55382C36.6767 9.62392 36.519 9.6531 36.3625 9.63807C36.2059 9.62303 36.0567 9.56437 35.9318 9.46875C35.1546 8.92083 34.3318 8.44077 33.4723 8.03386C33.3426 7.98136 33.2303 7.89325 33.1484 7.77972C33.0665 7.66618 33.0183 7.53182 33.0095 7.39211C32.7743 5.65823 32.4941 3.93187 32.2739 2.198C32.125 1.08337 31.5508 0.366549 30.5025 8.5382e-06ZM33.4711 25.609C33.4718 27.853 32.5833 30.0058 31.0002 31.5962C29.4171 33.1866 27.2684 34.0849 25.0244 34.0945C20.3532 34.0945 16.5327 30.3077 16.5252 25.6578C16.5187 23.4106 17.4052 21.2529 18.9896 19.6594C20.574 18.0658 22.7266 17.1669 24.9737 17.1605C27.2209 17.154 29.3786 18.0405 30.9722 19.6249C32.5657 21.2093 33.4646 23.3619 33.4711 25.609V25.609Z" fill="#40BFFF"/>
</svg>
