<svg width="50" height="50" viewBox="0 0 50 50" fill="none" xmlns="http://www.w3.org/2000/svg">
<path d="M20.0195 -8.47522e-06H2.92969C1.39974 0.423169 0.423177 1.39973 0 2.92968V26.2695C0.0458984 26.3916 0.0976563 26.5117 0.136719 26.6348C0.693359 28.2148 2.01367 29.1992 3.68457 29.2061C8.87468 29.2197 14.0651 29.2197 19.2559 29.2061C21.3389 29.1973 22.9482 27.5908 22.9541 25.5078C22.9717 18.2344 22.9717 10.9609 22.9541 3.68749C22.9587 3.17241 22.8551 2.6621 22.65 2.18957C22.445 1.71704 22.143 1.29281 21.7637 0.944329C21.2705 0.468743 20.6514 0.222648 20.0195 -8.47522e-06Z" fill="#40BFFF"/>
<path d="M29.9805 50H47.0704C48.6023 49.5788 49.5789 48.6022 50.0001 47.0703V23.7305C49.9473 23.5938 49.8936 23.458 49.8438 23.3203C49.2628 21.7432 47.9532 20.7959 46.2647 20.793C41.1072 20.7819 35.9496 20.7819 30.7921 20.793C28.6544 20.7998 27.0723 22.4082 27.0401 24.5439C27.0303 25.2432 27.0401 25.9434 27.0401 26.6426C27.0401 33.1178 27.0401 39.5937 27.0401 46.0703C27.0401 47.1602 27.3458 48.1211 28.1016 48.9199C28.6133 49.4707 29.2794 49.7686 29.9805 50Z" fill="#40BFFF"/>
<path d="M20.0195 50C20.5771 49.7773 21.1475 49.5859 21.6143 49.1807C22.4756 48.4375 22.9404 47.4902 22.9492 46.3604C22.9678 43.2227 22.9785 40.085 22.9492 36.9473C22.9503 36.4677 22.8565 35.9927 22.6733 35.5495C22.4901 35.1063 22.2211 34.7037 21.8818 34.3648C21.5424 34.0259 21.1395 33.7574 20.696 33.5748C20.2526 33.3922 19.7774 33.2991 19.2979 33.3008C14.0791 33.2741 8.86068 33.2741 3.64258 33.3008C2.04199 33.3066 0.738281 34.2773 0.177734 35.7754C0.120117 35.9287 0.0595703 36.0791 0 36.2305V47.0703C0.0556641 47.2217 0.113281 47.3721 0.166016 47.5234C0.628906 48.8604 1.62109 49.6094 2.92969 50H20.0195Z" fill="#40BFFF"/>
<path d="M29.9804 -3.58786e-06C29.5663 0.185543 29.121 0.303706 28.7402 0.563472C27.6552 1.30273 27.0634 2.33496 27.0536 3.64257C27.0302 6.78027 27.0244 9.91797 27.0536 13.0547C27.0539 13.5338 27.1486 14.0082 27.3322 14.4507C27.5159 14.8932 27.785 15.2951 28.1241 15.6336C28.4632 15.9721 28.8657 16.2404 29.3085 16.4232C29.7514 16.6061 30.2259 16.6999 30.705 16.6992C35.9231 16.7233 41.1416 16.7233 46.3603 16.6992C47.9648 16.6934 49.2597 15.7305 49.8222 14.2246C49.8789 14.0732 49.9404 13.9228 50 13.7715V2.92968C49.8232 2.48144 49.6826 2.01953 49.414 1.61035C48.8466 0.756832 48.0156 0.300778 47.0703 -3.58786e-06H29.9804Z" fill="#40BFFF"/>
</svg>
