<svg width="50" height="50" viewBox="0 0 50 50" fill="none" xmlns="http://www.w3.org/2000/svg">
<path d="M20.0195 -7.62938e-06H2.92968C1.39974 0.423167 0.423176 1.39973 0 2.92967V26.2695C0.0458983 26.3915 0.097656 26.5117 0.136718 26.6347C0.693358 28.2148 2.01367 29.1991 3.68456 29.206C8.87465 29.2197 14.0651 29.2197 19.2558 29.206C21.3388 29.1972 22.9482 27.5908 22.954 25.5077C22.9716 18.2343 22.9716 10.9609 22.954 3.68748C22.9586 3.1724 22.855 2.66209 22.65 2.18956C22.4449 1.71703 22.1429 1.29281 21.7636 0.944326C21.2705 0.468741 20.6513 0.222648 20.0195 -7.62938e-06Z" fill="#40BFFF"/>
<path d="M29.9805 49.9999H47.0703C48.6022 49.5787 49.5787 48.6021 50 47.0702V23.7304C49.9472 23.5937 49.8935 23.4579 49.8437 23.3203C49.2627 21.7431 47.9531 20.7958 46.2646 20.7929C41.1071 20.7819 35.9495 20.7819 30.792 20.7929C28.6543 20.7998 27.0723 22.4081 27.04 24.5439C27.0303 25.2431 27.04 25.9433 27.04 26.6425C27.04 33.1178 27.04 39.5937 27.04 46.0702C27.04 47.16 27.3457 48.121 28.1016 48.9198C28.6133 49.4706 29.2793 49.7684 29.9805 49.9999Z" fill="#40BFFF"/>
<path d="M20.0195 49.9999C20.5771 49.7772 21.1474 49.5858 21.6142 49.1805C22.4755 48.4374 22.9404 47.4901 22.9492 46.3602C22.9677 43.2226 22.9785 40.0849 22.9492 36.9472C22.9502 36.4676 22.8564 35.9926 22.6732 35.5494C22.49 35.1062 22.221 34.7036 21.8817 34.3647C21.5424 34.0258 21.1394 33.7574 20.696 33.5748C20.2525 33.3922 19.7774 33.299 19.2978 33.3007C14.0791 33.274 8.86066 33.274 3.64257 33.3007C2.04199 33.3066 0.738279 34.2773 0.177734 35.7753C0.120117 35.9286 0.0595702 36.079 0 36.2304V47.0702C0.0556639 47.2216 0.113281 47.372 0.166015 47.5233C0.628905 48.8602 1.62109 49.6093 2.92968 49.9999H20.0195Z" fill="#40BFFF"/>
<path d="M29.9803 -3.81469e-06C29.5663 0.185543 29.121 0.303706 28.7401 0.563471C27.6551 1.30273 27.0633 2.33495 27.0536 3.64257C27.0301 6.78025 27.0243 9.91794 27.0536 13.0547C27.0538 13.5338 27.1485 14.0081 27.3322 14.4506C27.5159 14.8931 27.7849 15.2951 28.124 15.6336C28.4631 15.972 28.8656 16.2404 29.3085 16.4232C29.7513 16.606 30.2258 16.6998 30.7049 16.6992C35.923 16.7233 41.1415 16.7233 46.3602 16.6992C47.9647 16.6933 49.2596 15.7304 49.8221 14.2246C49.8787 14.0732 49.9403 13.9228 49.9998 13.7714V2.92968C49.8231 2.48144 49.6825 2.01952 49.4139 1.61034C48.8465 0.756829 48.0155 0.300777 47.0702 -3.81469e-06H29.9803Z" fill="#40BFFF"/>
</svg>
