<svg width="50" height="45" viewBox="0 0 50 45" fill="none" xmlns="http://www.w3.org/2000/svg">
<g clip-path="url(#clip0_137_459)">
<path d="M0 16.165V12.751C0.12193 12.0803 0.221913 11.4097 0.365791 10.7415C1.5851 5.30467 5.64538 1.02247 11.242 0.177496C14.1 -0.254138 16.8081 0.177496 19.3199 1.66383C21.5597 2.98555 23.2338 4.85718 24.5763 7.05315C24.9713 7.69938 24.9604 7.69938 25.3652 7.03974C26.033 5.94182 26.8135 4.91653 27.6941 3.9805C32.2384 -0.817456 38.9446 -1.09058 43.8035 2.15277C47.7577 4.79012 49.5927 8.67848 49.9524 13.3082C50.2585 17.2404 49.0709 20.7789 46.881 24.0161C44.6753 27.2753 41.8819 29.9968 38.9811 32.611C34.8355 36.3433 30.5484 39.9085 26.337 43.5615C25.3237 44.4407 24.6177 44.4321 23.5887 43.5457C20.6806 41.0388 17.7592 38.5575 14.8609 36.0397C11.4834 33.1133 8.08642 30.2004 5.17351 26.7851C3.31529 24.605 1.73995 22.2542 0.784012 19.5242C0.407248 18.4329 0.226791 17.2941 0 16.165Z" fill="#40BFFF"/>
</g>
<defs>
<clipPath id="clip0_137_459">
<rect width="50" height="44.2156" fill="white"/>
</clipPath>
</defs>
</svg>
