<svg width="50" height="45" viewBox="0 0 50 45" fill="none" xmlns="http://www.w3.org/2000/svg">
<path d="M0 16.1656V12.7516C0.12193 12.0809 0.221913 11.4103 0.365791 10.7421C1.5851 5.30526 5.64538 1.02307 11.242 0.178091C14.1 -0.253543 16.8081 0.178091 19.3199 1.66442C21.5597 2.98615 23.2338 4.85778 24.5763 7.05374C24.9713 7.69998 24.9604 7.69998 25.3652 7.04033C26.033 5.94242 26.8135 4.91713 27.694 3.9811C32.2384 -0.816861 38.9446 -1.08998 43.8035 2.15336C47.7577 4.79072 49.5928 8.67908 49.9524 13.3088C50.2585 17.241 49.0709 20.7794 46.881 24.0167C44.6753 27.2759 41.8819 29.9974 38.9811 32.6116C34.8355 36.3439 30.5484 39.9091 26.337 43.5621C25.3237 44.4413 24.6177 44.4327 23.5887 43.5463C20.6806 41.0394 17.7592 38.5581 14.8609 36.0403C11.4834 33.1139 8.08642 30.201 5.17351 26.7857C3.31529 24.6056 1.73995 22.2548 0.784012 19.5248C0.407248 18.4335 0.226791 17.2947 0 16.1656Z" fill="#40BFFF"/>
</svg>
