<svg width="51" height="50" viewBox="0 0 51 50" fill="none" xmlns="http://www.w3.org/2000/svg">
<path d="M24.1211 0H25.8789C27.0107 0.264648 27.9053 0.898437 28.7178 1.71387C35.1846 8.19954 41.6624 14.6774 48.1514 21.1475C49.0117 22.0039 49.7139 22.9258 50.0068 24.126V25.8838C49.3486 28.209 47.8701 29.5283 45.4072 29.668C44.7363 29.7061 44.7236 29.7432 44.7236 30.4951C44.7236 34.9795 44.7236 39.4642 44.7236 43.9492C44.7236 45.1299 44.5967 46.2812 43.9766 47.3311C43.1152 48.7705 41.834 49.6094 40.2344 50H30.7617C30.0059 49.6191 29.7383 49.001 29.7432 48.166C29.7637 44.4268 29.7549 40.6885 29.75 36.9492C29.75 35.3711 28.7734 34.4004 27.1934 34.3906C25.7627 34.3828 24.3301 34.4365 22.9014 34.376C21.1846 34.3037 20.21 35.6455 20.2295 37.0439C20.2812 40.75 20.2354 44.457 20.2559 48.1631C20.2559 48.9961 19.9912 49.6162 19.2383 50H9.76562C8.18652 49.6094 6.91016 48.7939 6.05469 47.3711C5.4248 46.3262 5.28027 45.1807 5.2793 43.998C5.2793 41.3001 5.2793 38.6022 5.2793 35.9043C5.2793 34.0352 5.27148 32.167 5.2793 30.2979C5.2793 29.8721 5.1377 29.6738 4.69336 29.6611C4.22139 29.6609 3.75174 29.5952 3.29785 29.4658C1.50781 28.9063 0.463867 27.6602 0 25.8789V24.1211C0.268555 22.9727 0.918945 22.0703 1.74609 21.2471C8.24544 14.7686 14.734 8.27962 21.2119 1.78027C22.0469 0.943359 22.9492 0.270508 24.1211 0Z" fill="#40BFFF"/>
</svg>
