<svg width="50" height="47" viewBox="0 0 50 47" fill="none" xmlns="http://www.w3.org/2000/svg">
<path d="M50 4.72049V42.1917C49.9436 42.4008 49.8892 42.6099 49.8328 42.8022C49.5 43.9784 48.7945 45.0148 47.8222 45.7556C46.85 46.4964 45.6635 46.9015 44.4412 46.9101C31.4797 46.9101 18.5182 46.9101 5.55672 46.9101C4.08985 46.895 2.68717 46.3064 1.64871 45.2703C0.610256 44.2341 0.0184904 42.8328 0 41.366C0 29.4289 0 17.491 0 5.55254C0.0194965 4.08561 0.611039 2.68429 1.6486 1.64713C2.68615 0.609959 4.0877 0.0189443 5.55463 0C18.5314 0 31.509 0 44.4872 0C45.2543 0.00376759 46.0113 0.175002 46.7053 0.501735C48.5262 1.34214 49.5463 2.80554 50 4.72049ZM25.4171 41.5792H42.543C43.1137 41.5792 43.6719 41.5081 43.9792 40.952C44.2865 40.396 43.9604 39.9193 43.6949 39.4531L43.6677 39.4113C41.6998 36.6016 39.7312 33.7919 37.7618 30.9821C37.4746 30.5415 37.0464 30.2114 36.5472 30.0456C35.6253 29.7571 34.8915 30.0999 34.2476 30.7313C33.449 31.5194 32.6943 32.3556 31.8581 33.0999C30.8024 34.0386 29.4728 33.9361 28.5132 32.8908C28.3271 32.6818 28.1599 32.4727 27.9926 32.2448C25.0185 28.3578 22.0429 24.4714 19.0659 20.5858C18.0207 19.2248 16.875 19.3314 16.0806 20.8659L16.0367 20.9516L6.93022 38.9723C6.76691 39.2723 6.64924 39.595 6.58109 39.9298C6.51089 40.2511 6.56388 40.5871 6.72957 40.8713C6.89527 41.1554 7.1616 41.3671 7.47585 41.4642C7.83565 41.5669 8.21064 41.6058 8.58385 41.5792H25.4171ZM26.9683 13.8897C26.9622 14.5996 27.0964 15.3036 27.3633 15.9615C27.6301 16.6193 28.0242 17.2179 28.5231 17.723C29.0219 18.2281 29.6156 18.6296 30.2701 18.9045C30.9246 19.1795 31.6269 19.3224 32.3368 19.3252C33.769 19.3105 35.1383 18.7347 36.1507 17.7215C37.1631 16.7084 37.7378 15.3386 37.7514 13.9064C37.7459 12.4825 37.1766 11.1187 36.1682 10.1134C35.1597 9.10813 33.7942 8.54314 32.3703 8.54204C31.662 8.52947 30.9584 8.65879 30.3008 8.9224C29.6433 9.18601 29.0452 9.57856 28.5418 10.0769C28.0384 10.5753 27.6398 11.1694 27.3695 11.8242C27.0993 12.479 26.9629 13.1813 26.9683 13.8897Z" fill="#40BFFF"/>
</svg>
