<svg width="50" height="30" viewBox="0 0 50 30" fill="none" xmlns="http://www.w3.org/2000/svg">
<path d="M49.9973 23.8334C49.5836 25.2494 48.7014 26.1676 47.2173 26.4465C46.4072 26.5987 45.6652 26.3838 44.9725 25.9901C42.2486 24.4366 39.5313 22.8698 36.8074 21.319C36.6822 21.2607 36.5778 21.1655 36.5081 21.0463C36.4385 20.927 36.4069 20.7894 36.4177 20.6517C36.4248 16.7012 36.4248 12.7517 36.4177 8.80305C36.4067 8.66567 36.4379 8.5282 36.507 8.40899C36.5762 8.28977 36.68 8.19445 36.8047 8.13575C39.506 6.59294 42.2019 5.01144 44.9191 3.4753C46.921 2.34623 48.9803 3.09761 49.8665 5.22364C49.9039 5.31306 49.9532 5.39714 50 5.48389L49.9973 23.8334Z" fill="#40BFFF"/>
<path d="M16.8818 0.00533842C20.6187 0.00533842 24.3556 -0.00667303 28.0924 0.00533842C30.2638 0.0226883 31.9588 0.927551 33.0852 2.80801C33.619 3.69152 33.8246 4.67646 33.8246 5.7001C33.8246 11.7316 33.8246 17.7627 33.8246 23.7933C33.8246 27.0645 31.3969 29.5028 28.1218 29.5095C22.222 29.5201 16.3212 29.5201 10.4196 29.5095C8.82608 29.5095 7.23256 29.5188 5.63904 29.5095C2.78966 29.4841 0.550192 27.601 0.056388 24.8116C0.0123836 24.5081 -0.00592096 24.2014 0.00166922 23.8948C0.00166922 17.8108 0.00166922 11.729 0.00166922 5.64939C0.00166922 2.45301 2.40396 0.0293613 5.61635 0.0146807C9.3706 -0.00400382 13.1262 0.00533842 16.8818 0.00533842Z" fill="#40BFFF"/>
</svg>
